<?xml version="1.0" standalone="no"?>
<!DOCTYPE svg PUBLIC "-//W3C//DTD SVG 20010904//EN"
 "http://www.w3.org/TR/2001/REC-SVG-20010904/DTD/svg10.dtd">
<svg version="1.0" xmlns="http://www.w3.org/2000/svg"
 width="80.000000pt" height="80.000000pt" viewBox="0 0 80.000000 80.000000"
 preserveAspectRatio="xMidYMid meet">
<metadata>
Created by potrace 1.16, written by Peter Selinger 2001-2019
</metadata>
<g transform="translate(0.000000,80.000000) scale(0.100000,-0.100000)"
fill="#000000" stroke="none">
<path d="M193 779 c-61 -23 -131 -88 -165 -150 -22 -42 -23 -54 -23 -229 0
-175 1 -187 23 -229 35 -64 104 -127 168 -150 46 -18 78 -21 204 -21 126 0
158 3 204 21 64 23 133 86 168 150 22 42 23 54 23 229 0 175 -1 187 -23 229
-35 64 -104 127 -168 150 -47 18 -77 21 -207 20 -127 0 -160 -3 -204 -20z
m230 -133 c21 -21 24 -32 20 -78 l-4 -53 17 40 c23 53 20 52 50 24 55 -50 85
-166 48 -187 -14 -8 -14 -11 7 -25 23 -17 23 -17 6 -71 -21 -66 -46 -99 -89
-117 -18 -7 -36 -17 -40 -23 -4 -6 -12 -5 -22 3 -13 11 -19 11 -32 0 -10 -8
-18 -9 -22 -3 -4 6 -22 16 -40 23 -43 18 -68 51 -89 117 -17 54 -17 54 6 71
21 14 21 17 7 25 -37 21 -7 137 48 187 30 28 27 29 50 -24 l17 -40 -4 54 c-4
43 0 57 17 76 11 13 22 23 23 24 1 1 13 -10 26 -23z"/>
</g>
</svg>
